<svg width="450" height="237" viewBox="0 0 450 237" fill="none" xmlns="http://www.w3.org/2000/svg">
<path fill-rule="evenodd" clip-rule="evenodd" d="M116.789 218.551L178.857 183.02L178.594 111.501L165.666 104.037L165.929 175.556L103.861 211.087L116.789 218.551Z" fill="url(#paint0_linear_12_19)"/>
<path fill-rule="evenodd" clip-rule="evenodd" d="M31.1333 168.112L92.9384 204.099L154.744 168.112V153.184L92.9384 189.171L31.1333 153.184V168.112Z" fill="url(#paint1_linear_12_19)"/>
<path fill-rule="evenodd" clip-rule="evenodd" d="M31.1659 68.1229L30.9026 139.641L92.9711 175.173L105.899 167.708L43.8307 132.177L44.094 60.6589L31.1659 68.1229Z" fill="url(#paint2_linear_12_19)"/>
<path fill-rule="evenodd" clip-rule="evenodd" d="M117.834 17.9936L55.7656 53.5248L56.0289 125.043L68.957 132.507L68.6937 60.9888L130.762 25.4576L117.834 17.9936Z" fill="url(#paint3_linear_12_19)"/>
<path fill-rule="evenodd" clip-rule="evenodd" d="M204.117 68.0291L142.312 32.0419L80.5068 68.0291V82.9572L142.312 46.9699L204.117 82.9572V68.0291Z" fill="url(#paint4_linear_12_19)"/>
<path fill-rule="evenodd" clip-rule="evenodd" d="M204.339 168.421L204.602 96.903L142.533 61.3718L129.605 68.8358L191.674 104.367L191.411 175.885L204.339 168.421Z" fill="url(#paint5_linear_12_19)"/>
<path d="M264.74 135V104.088H269.972V118.296L283.124 104.088H289.172L277.796 116.568L289.652 135H284.084L274.532 119.88L269.972 124.776V135H264.74ZM291.672 135L303.48 104.088H309.336L321.048 135H315.672L312.6 127.032H300.168L297.096 135H291.672ZM300.984 123H311.736L306.36 108.84L300.984 123ZM326.193 135V104.088H340.401C343.857 104.088 346.369 104.984 347.937 106.776C349.537 108.536 350.337 110.936 350.337 113.976C350.337 116.152 349.793 118.008 348.705 119.544C347.617 121.08 346.049 122.152 344.001 122.76C344.577 123.176 345.025 123.624 345.345 124.104C345.665 124.584 345.985 125.224 346.305 126.024L350.193 135H344.817L341.025 126.36C340.673 125.528 340.241 124.936 339.729 124.584C339.249 124.232 338.417 124.056 337.233 124.056H331.425V135H326.193ZM331.425 119.832H339.009C340.897 119.832 342.385 119.368 343.473 118.44C344.561 117.512 345.105 116.024 345.105 113.976C345.105 110.104 343.233 108.168 339.489 108.168H331.425V119.832ZM355.49 135V104.088H360.722V130.968H376.562V135H355.49ZM391.771 135V104.088H397.003V118.296L410.155 104.088H416.203L404.827 116.568L416.683 135H411.115L401.563 119.88L397.003 124.776V135H391.771ZM432.311 135.48C427.415 135.48 423.751 134.2 421.319 131.64C418.887 129.048 417.671 125.048 417.671 119.64C417.671 114.008 418.887 109.928 421.319 107.4C423.751 104.872 427.415 103.608 432.311 103.608C437.239 103.608 440.903 104.872 443.303 107.4C445.735 109.928 446.951 114.008 446.951 119.64C446.951 125.048 445.735 129.048 443.303 131.64C440.903 134.2 437.239 135.48 432.311 135.48ZM432.311 131.064C435.543 131.064 437.911 130.184 439.415 128.424C440.951 126.632 441.719 123.704 441.719 119.64C441.719 115.352 440.951 112.36 439.415 110.664C437.911 108.936 435.543 108.072 432.311 108.072C429.111 108.072 426.743 108.936 425.207 110.664C423.703 112.36 422.951 115.352 422.951 119.64C422.951 123.704 423.703 126.632 425.207 128.424C426.743 130.184 429.111 131.064 432.311 131.064Z" fill="#00565E"/>
<line x1="236.716" y1="15" x2="236.716" y2="221" stroke="#00565E" stroke-width="2"/>
<defs>
<linearGradient id="paint0_linear_12_19" x1="178.857" y1="183.02" x2="117.404" y2="289.458" gradientUnits="userSpaceOnUse">
<stop stop-color="#00565E"/>
<stop offset="0.0001" stop-color="#38D39F"/>
</linearGradient>
<linearGradient id="paint1_linear_12_19" x1="92.9384" y1="204.099" x2="-29.9665" y2="204.098" gradientUnits="userSpaceOnUse">
<stop stop-color="#00565E"/>
<stop offset="0.0001" stop-color="#38D39F"/>
</linearGradient>
<linearGradient id="paint2_linear_12_19" x1="30.9026" y1="139.641" x2="-30.5493" y2="33.2023" gradientUnits="userSpaceOnUse">
<stop stop-color="#00565E"/>
<stop offset="0.0001" stop-color="#38D39F"/>
</linearGradient>
<linearGradient id="paint3_linear_12_19" x1="55.7656" y1="53.5248" x2="117.219" y2="-52.9137" gradientUnits="userSpaceOnUse">
<stop stop-color="#00565E"/>
<stop offset="0.0001" stop-color="#38D39F"/>
</linearGradient>
<linearGradient id="paint4_linear_12_19" x1="142.312" y1="32.0419" x2="265.217" y2="32.0424" gradientUnits="userSpaceOnUse">
<stop stop-color="#00565E"/>
<stop offset="0.0001" stop-color="#38D39F"/>
</linearGradient>
<linearGradient id="paint5_linear_12_19" x1="204.602" y1="96.903" x2="266.054" y2="203.342" gradientUnits="userSpaceOnUse">
<stop stop-color="#00565E"/>
<stop offset="0.0001" stop-color="#38D39F"/>
</linearGradient>
</defs>
</svg>
