<svg width="512" height="237" viewBox="0 0 512 237" fill="none" xmlns="http://www.w3.org/2000/svg">
<path fill-rule="evenodd" clip-rule="evenodd" d="M116.789 218.551L178.857 183.02L178.594 111.501L165.666 104.037L165.929 175.556L103.861 211.087L116.789 218.551Z" fill="url(#paint0_linear_103_2)"/>
<path fill-rule="evenodd" clip-rule="evenodd" d="M31.1333 168.112L92.9384 204.099L154.744 168.112V153.184L92.9384 189.171L31.1333 153.184V168.112Z" fill="url(#paint1_linear_103_2)"/>
<path fill-rule="evenodd" clip-rule="evenodd" d="M31.1659 68.1229L30.9026 139.641L92.9711 175.173L105.899 167.708L43.8307 132.177L44.094 60.6589L31.1659 68.1229Z" fill="url(#paint2_linear_103_2)"/>
<path fill-rule="evenodd" clip-rule="evenodd" d="M117.834 17.9936L55.7656 53.5248L56.0289 125.043L68.957 132.507L68.6937 60.9888L130.762 25.4576L117.834 17.9936Z" fill="url(#paint3_linear_103_2)"/>
<path fill-rule="evenodd" clip-rule="evenodd" d="M204.117 68.0291L142.312 32.0419L80.5068 68.0291V82.9572L142.312 46.9699L204.117 82.9572V68.0291Z" fill="url(#paint4_linear_103_2)"/>
<path fill-rule="evenodd" clip-rule="evenodd" d="M204.339 168.421L204.602 96.903L142.533 61.3718L129.605 68.8358L191.674 104.367L191.411 175.885L204.339 168.421Z" fill="url(#paint5_linear_103_2)"/>
<path d="M265.748 141V99.784H272.724V118.728L290.26 99.784H298.324L283.156 116.424L298.964 141H291.54L278.804 120.84L272.724 127.368V141H265.748ZM301.657 141L317.401 99.784H325.209L340.825 141H333.657L329.561 130.376H312.985L308.889 141H301.657ZM314.073 125H328.409L321.241 106.12L314.073 125ZM347.686 141V99.784H366.63C371.238 99.784 374.587 100.979 376.678 103.368C378.811 105.715 379.878 108.915 379.878 112.968C379.878 115.869 379.152 118.344 377.702 120.392C376.251 122.44 374.16 123.869 371.43 124.68C372.198 125.235 372.795 125.832 373.222 126.472C373.648 127.112 374.075 127.965 374.502 129.032L379.686 141H372.518L367.462 129.48C366.992 128.371 366.416 127.581 365.734 127.112C365.094 126.643 363.984 126.408 362.406 126.408H354.662V141H347.686ZM354.662 120.776H364.774C367.291 120.776 369.275 120.157 370.726 118.92C372.176 117.683 372.902 115.699 372.902 112.968C372.902 107.805 370.406 105.224 365.414 105.224H354.662V120.776ZM386.748 141V99.784H393.724V135.624H414.844V141H386.748ZM435.123 141V99.784H442.099V118.728L459.635 99.784H467.699L452.531 116.424L468.339 141H460.915L448.179 120.84L442.099 127.368V141H435.123ZM489.176 141.64C482.648 141.64 477.762 139.933 474.52 136.52C471.277 133.064 469.656 127.731 469.656 120.52C469.656 113.011 471.277 107.571 474.52 104.2C477.762 100.829 482.648 99.144 489.176 99.144C495.746 99.144 500.632 100.829 503.832 104.2C507.074 107.571 508.696 113.011 508.696 120.52C508.696 127.731 507.074 133.064 503.832 136.52C500.632 139.933 495.746 141.64 489.176 141.64ZM489.176 135.752C493.485 135.752 496.642 134.579 498.648 132.232C500.696 129.843 501.72 125.939 501.72 120.52C501.72 114.803 500.696 110.813 498.648 108.552C496.642 106.248 493.485 105.096 489.176 105.096C484.909 105.096 481.752 106.248 479.704 108.552C477.698 110.813 476.696 114.803 476.696 120.52C476.696 125.939 477.698 129.843 479.704 132.232C481.752 134.579 484.909 135.752 489.176 135.752Z" fill="#00565E"/>
<line x1="236.716" y1="15" x2="236.716" y2="221" stroke="#00565E" stroke-width="2"/>
<defs>
<linearGradient id="paint0_linear_103_2" x1="178.857" y1="183.02" x2="117.404" y2="289.458" gradientUnits="userSpaceOnUse">
<stop stop-color="#00565E"/>
<stop offset="0.0001" stop-color="#38D39F"/>
</linearGradient>
<linearGradient id="paint1_linear_103_2" x1="92.9384" y1="204.099" x2="-29.9665" y2="204.098" gradientUnits="userSpaceOnUse">
<stop stop-color="#00565E"/>
<stop offset="0.0001" stop-color="#38D39F"/>
</linearGradient>
<linearGradient id="paint2_linear_103_2" x1="30.9026" y1="139.641" x2="-30.5493" y2="33.2023" gradientUnits="userSpaceOnUse">
<stop stop-color="#00565E"/>
<stop offset="0.0001" stop-color="#38D39F"/>
</linearGradient>
<linearGradient id="paint3_linear_103_2" x1="55.7656" y1="53.5248" x2="117.219" y2="-52.9137" gradientUnits="userSpaceOnUse">
<stop stop-color="#00565E"/>
<stop offset="0.0001" stop-color="#38D39F"/>
</linearGradient>
<linearGradient id="paint4_linear_103_2" x1="142.312" y1="32.0419" x2="265.217" y2="32.0424" gradientUnits="userSpaceOnUse">
<stop stop-color="#00565E"/>
<stop offset="0.0001" stop-color="#38D39F"/>
</linearGradient>
<linearGradient id="paint5_linear_103_2" x1="204.602" y1="96.903" x2="266.054" y2="203.342" gradientUnits="userSpaceOnUse">
<stop stop-color="#00565E"/>
<stop offset="0.0001" stop-color="#38D39F"/>
</linearGradient>
</defs>
</svg>
