<svg width="584" height="404" viewBox="0 0 584 404" fill="none" xmlns="http://www.w3.org/2000/svg">
<rect x="110" y="109" width="416" height="233" rx="17" fill="#EDF6F9"/>
<path d="M317 225L114.5 114.5C116.5 111.3 122.667 109.5 125.5 109H504.5C515.3 108.2 521.333 114 523 117L317 225Z" fill="#38D39F"/>
<path fill-rule="evenodd" clip-rule="evenodd" d="M136 305H205.285L213 312.203V321H141.803L136 312.427V305Z" fill="#38D39F"/>
<path fill-rule="evenodd" clip-rule="evenodd" d="M172.517 278H136V287.208L144.212 294H180V285.483L172.517 278Z" fill="#38D39F"/>
<path fill-rule="evenodd" clip-rule="evenodd" d="M581.063 220H527V233H584V224.427L581.063 220Z" fill="#38D39F" fill-opacity="0.15"/>
<path fill-rule="evenodd" clip-rule="evenodd" d="M55.9373 170H110V183H53V174.427L55.9373 170Z" fill="#38D39F" fill-opacity="0.15"/>
<path fill-rule="evenodd" clip-rule="evenodd" d="M447.063 369H393V382H450V373.427L447.063 369Z" fill="#38D39F" fill-opacity="0.15"/>
<path fill-rule="evenodd" clip-rule="evenodd" d="M54.0627 273H0V286H57V277.427L54.0627 273Z" fill="#38D39F" fill-opacity="0.15"/>
<path d="M508 108H127C123.718 107.996 120.492 108.848 117.64 110.47C116.956 110.858 116.298 111.289 115.67 111.76C113.29 113.525 111.356 115.822 110.024 118.469C108.692 121.115 107.999 124.037 108 127V325C108.004 330.038 110.008 334.868 113.57 338.43C117.132 341.992 121.962 343.996 127 344H508C513.038 343.995 517.868 341.992 521.43 338.43C524.992 334.868 526.995 330.038 527 325V127C526.995 121.962 524.992 117.132 521.43 113.57C517.868 110.008 513.038 108.005 508 108ZM525 325C524.994 329.507 523.2 333.827 520.014 337.014C516.827 340.2 512.507 341.994 508 342H127C122.493 341.994 118.173 340.2 114.986 337.014C111.8 333.827 110.006 329.507 110 325V127C110.014 123.407 111.16 119.91 113.275 117.006C115.389 114.101 118.365 111.937 121.78 110.82C121.92 110.78 122.05 110.73 122.19 110.69C123.752 110.231 125.372 109.998 127 110H508C512.507 110.006 516.827 111.8 520.014 114.986C523.2 118.173 524.994 122.493 525 127V325Z" fill="#505C5E"/>
<path d="M317.083 225.916C315.566 225.915 314.073 225.53 312.745 224.797L113.701 115.244C113.469 115.117 113.297 114.902 113.223 114.647C113.149 114.392 113.18 114.119 113.308 113.886C113.435 113.654 113.65 113.482 113.905 113.408C114.16 113.334 114.433 113.365 114.666 113.493L313.709 223.045C314.724 223.606 315.863 223.905 317.022 223.915C318.182 223.925 319.326 223.646 320.35 223.104L522.67 116.374C522.786 116.313 522.913 116.275 523.044 116.262C523.175 116.25 523.307 116.263 523.433 116.302C523.558 116.341 523.675 116.404 523.776 116.488C523.878 116.572 523.961 116.675 524.023 116.791C524.084 116.907 524.122 117.035 524.134 117.166C524.146 117.296 524.132 117.428 524.093 117.554C524.054 117.68 523.991 117.796 523.907 117.897C523.823 117.998 523.719 118.082 523.603 118.143L321.283 224.872C319.989 225.557 318.548 225.915 317.083 225.916Z" fill="#00565E"/>
<path d="M548.893 42.7088L558.663 34.3692L570.77 38.6604L573.107 51.2912L563.337 59.6309L551.23 55.3396L548.893 42.7088Z" stroke="#38D39F" stroke-width="2"/>
<path d="M196.206 383.022L205.976 374.683L218.084 378.974L220.421 391.605L210.651 399.945L198.544 395.653L196.206 383.022Z" stroke="#38D39F" stroke-width="2"/>
<path d="M439.398 87.9517L440.853 82.0317L446.708 80.3324L451.107 84.5531L449.651 90.4732L443.797 92.1725L439.398 87.9517Z" stroke="#00565E" stroke-width="2"/>
<path d="M61.3976 332.952L62.8534 327.032L68.7082 325.332L73.1072 329.553L71.6515 335.473L65.7967 337.172L61.3976 332.952Z" stroke="#00565E" stroke-width="2"/>
<path d="M152.543 29.3354L178.718 7.83301L210.427 19.75L215.962 53.1694L189.787 74.6718L158.077 62.7548L152.543 29.3354Z" stroke="#38D39F" stroke-width="2"/>
<path d="M58 104.124L37 92L58 79.8756L58 104.124Z" stroke="#00565E" stroke-width="2"/>
<path d="M568 399.124L547 387L568 374.876L568 399.124Z" stroke="#00565E" stroke-width="2"/>
<path d="M317 194L344.713 210V242L317 258L289.287 242V210L317 194Z" fill="#00565E"/>
</svg>
